<svg width="100" height="100" viewBox="0 0 100 100" fill="none" xmlns="http://www.w3.org/2000/svg">
<path d="M0 40C0 17.9086 17.9086 0 40 0H60C82.0914 0 100 17.9086 100 40V60C100 82.0914 82.0914 100 60 100H40C17.9086 100 0 82.0914 0 60V40Z" fill="#4691FF"/>
<path d="M51.8 32.04H45.29C44.5433 32.04 44.17 32.2267 44.17 32.6V76H36.82C35.2333 76 34.1833 75.7434 33.67 75.23C33.2033 74.7167 32.97 73.6434 32.97 72.01V29.38C32.97 27.7467 33.2033 26.6734 33.67 26.16C34.1833 25.6467 35.2333 25.39 36.82 25.39H51.8V32.04ZM54.6 25.39H61.95C63.5367 25.39 64.5633 25.6467 65.03 26.16C65.5433 26.6734 65.8 27.7467 65.8 29.38V71.94C65.8 73.5734 65.5433 74.67 65.03 75.23C64.5167 75.7434 63.49 76 61.95 76H54.6V52.55H46.97V45.9H54.6V25.39Z" fill="white"/>
</svg>
